<svg xmlns="http://www.w3.org/2000/svg" width="2560" height="1440" viewBox="0 0 2560 1440"><defs>
<pattern id="grid" width="64" height="64" patternUnits="userSpaceOnUse"><path d="M64 0H0V64" fill="none" stroke="rgba(124,160,220,0.06)" stroke-width="1"/></pattern>
<radialGradient id="glowG" cx="50%" cy="-10%" r="60%"><stop offset="0" stop-color="rgba(52,245,176,0.13)"/><stop offset="1" stop-color="rgba(52,245,176,0)"/></radialGradient>
<radialGradient id="glowD" cx="90%" cy="8%" r="55%"><stop offset="0" stop-color="rgba(255,207,92,0.10)"/><stop offset="1" stop-color="rgba(255,207,92,0)"/></radialGradient>
<linearGradient id="grad" x1="0" y1="0" x2="1" y2="0"><stop offset="0" stop-color="#34f5b0"/><stop offset="0.55" stop-color="#bfe9ff"/><stop offset="1" stop-color="#ffcf5c"/></linearGradient>
<radialGradient id="mv-halo" cx="50%" cy="42%" r="55%"><stop offset="0" stop-color="rgba(52,245,176,0.20)"/><stop offset="1" stop-color="rgba(52,245,176,0)"/></radialGradient></defs><rect width="2560" height="1440" fill="#060a12"/><rect width="2560" height="1440" fill="url(#grid)"/><rect width="2560" height="1440" fill="url(#glowG)"/><rect width="2560" height="1440" fill="url(#glowD)"/><rect x="160" y="322" width="1080" height="56" rx="28" fill="rgba(12,19,34,0.6)" stroke="#2a3a5c"/><circle cx="200" cy="350" r="7" fill="#34f5b0"/><text x="228" y="359" font-family="monospace" font-weight="400" font-size="22" fill="#93a1c4" text-anchor="start" letter-spacing="3">TRADINGVIEW INDICATOR SUITE &#183; EARLY ACCESS</text><text x="160" y="500" font-family="sans-serif" font-weight="800" font-size="112" fill="#ffffff" text-anchor="start">TradingView indicators</text><text x="160" y="612" font-family="sans-serif" font-weight="800" font-size="112" fill="#ffffff" text-anchor="start">that show the</text><text x="160" y="724" font-family="sans-serif" font-weight="800" font-size="112" fill="url(#grad)" text-anchor="start">range before you</text><text x="160" y="836" font-family="sans-serif" font-weight="800" font-size="112" fill="url(#grad)" text-anchor="start">make the move.</text><text x="160" y="952" font-family="sans-serif" font-weight="400" font-size="34" fill="#93a1c4" text-anchor="start">RangeClarity overlays support, resistance, momentum, entry</text><text x="160" y="1000" font-family="sans-serif" font-weight="400" font-size="34" fill="#93a1c4" text-anchor="start">quality, and risk zones directly on your TradingView chart.</text><rect x="160" y="1080" width="372" height="88" rx="14" fill="#34f5b0"/><text x="346" y="1135" font-family="sans-serif" font-weight="800" font-size="30" fill="#04130d" text-anchor="middle">Join Early Access  &#8594;</text><rect x="556" y="1080" width="330" height="88" rx="14" fill="rgba(12,19,34,0.6)" stroke="#2a3a5c"/><text x="721" y="1135" font-family="sans-serif" font-weight="700" font-size="30" fill="#ffffff" text-anchor="middle">See a sample read</text><text x="160" y="1230" font-family="monospace" font-weight="400" font-size="24" fill="#5d6a8c" text-anchor="start" letter-spacing="1">No signal-bot hype. No candle-chasing. Just cleaner chart structure.</text><rect x="160" y="1276" width="404" height="52" rx="26" fill="rgba(12,19,34,0.5)" stroke="#2a3a5c"/><text x="182" y="1309" font-family="monospace" font-weight="400" font-size="21" fill="#93a1c4" text-anchor="start" letter-spacing="1">&#9679; Support / Resistance</text><rect x="582" y="1276" width="378" height="52" rx="26" fill="rgba(12,19,34,0.5)" stroke="#2a3a5c"/><text x="604" y="1309" font-family="monospace" font-weight="400" font-size="21" fill="#93a1c4" text-anchor="start" letter-spacing="1">&#9679; Momentum lifecycle</text><rect x="978" y="1276" width="313" height="52" rx="26" fill="rgba(12,19,34,0.5)" stroke="#2a3a5c"/><text x="1000" y="1309" font-family="monospace" font-weight="400" font-size="21" fill="#93a1c4" text-anchor="start" letter-spacing="1">&#9679; Risk / Reward</text><g transform="translate(1600 350) scale(2)">
<ellipse cx="170" cy="168" rx="150" ry="150" fill="url(#mv-halo)"/>
<ellipse cx="170" cy="338" rx="92" ry="15" fill="#34f5b0" opacity="0.12"/>
<ellipse cx="170" cy="336" rx="78" ry="11" fill="#04070d" opacity="0.55"/>
<g transform="translate(54 26)">
<path d="M70 70 C70 18 158 18 158 70 L168 150 L60 150 Z" fill="#0d1626" stroke="#243a59" stroke-width="2"/>
<path d="M64 78 C64 24 164 24 164 78" fill="none" stroke="#1a2740" stroke-width="9" stroke-linecap="round"/>
<path d="M82 58 C82 26 146 26 146 58 L146 64 L82 64 Z" fill="#0c1322" stroke="#26384f" stroke-width="2"/>
<path d="M82 62 C70 62 58 66 52 72 C66 70 78 68 96 68 Z" fill="#0c1322" stroke="#26384f" stroke-width="2"/>
<circle cx="114" cy="34" r="2.6" fill="#34f5b0"/>
<ellipse cx="114" cy="86" rx="40" ry="40" fill="#eef3ff"/>
<path d="M92 80 L108 86 L92 92 Z" fill="#0a0f1a"/><path d="M136 80 L120 86 L136 92 Z" fill="#0a0f1a"/>
<circle cx="70" cy="88" r="16" fill="#0c1322" stroke="#2a3a5c" stroke-width="2"/>
<circle cx="158" cy="88" r="16" fill="#0c1322" stroke="#2a3a5c" stroke-width="2"/>
<rect x="151" y="84" width="2.4" height="8" rx="1" fill="#34f5b0"/><rect x="155" y="81" width="2.4" height="14" rx="1" fill="#34f5b0"/><rect x="159" y="83" width="2.4" height="10" rx="1" fill="#34f5b0"/><rect x="163" y="80" width="2.4" height="16" rx="1" fill="#34f5b0"/>
<path d="M56 150 C56 138 70 132 114 132 C158 132 172 138 172 150 L184 268 C184 280 60 280 44 268 Z" fill="#0f1828" stroke="#243a59" stroke-width="2"/>
<path d="M86 134 C96 150 132 150 142 134" fill="none" stroke="#243a59" stroke-width="2"/>
<line x1="114" y1="138" x2="114" y2="262" stroke="#1a2740" stroke-width="3"/>
<path d="M104 140 C104 156 100 168 96 178" fill="none" stroke="#34f5b0" stroke-width="2.5" stroke-linecap="round"/>
<path d="M124 140 C124 156 128 168 132 178" fill="none" stroke="#34f5b0" stroke-width="2.5" stroke-linecap="round"/>
<circle cx="96" cy="180" r="2.6" fill="#34f5b0"/><circle cx="132" cy="180" r="2.6" fill="#34f5b0"/>
<path d="M52 196 C92 182 150 182 186 208 C150 224 96 226 60 224 C50 220 48 204 52 196 Z" fill="#11203a" stroke="#243a59" stroke-width="2"/>
<path d="M188 200 C150 188 96 190 58 214 C96 230 150 230 184 220 C194 216 194 206 188 200 Z" fill="#0e1a30" stroke="#243a59" stroke-width="2"/>
<ellipse cx="60" cy="222" rx="12" ry="10" fill="#eef3ff"/><ellipse cx="184" cy="214" rx="12" ry="10" fill="#eef3ff"/>
<path d="M150 168 l-10 12 6 1 -7 12 18 -16 -7 -1 7 -9 z" fill="#34f5b0" opacity="0.95"/>
</g></g></svg>