<svg xmlns="http://www.w3.org/2000/svg" width="2560" height="1440" viewBox="0 0 2560 1440"><defs>
<pattern id="grid" width="64" height="64" patternUnits="userSpaceOnUse"><path d="M64 0H0V64" fill="none" stroke="rgba(124,160,220,0.06)" stroke-width="1"/></pattern>
<radialGradient id="glowG" cx="50%" cy="-10%" r="60%"><stop offset="0" stop-color="rgba(52,245,176,0.13)"/><stop offset="1" stop-color="rgba(52,245,176,0)"/></radialGradient>
<radialGradient id="glowD" cx="90%" cy="8%" r="55%"><stop offset="0" stop-color="rgba(255,207,92,0.10)"/><stop offset="1" stop-color="rgba(255,207,92,0)"/></radialGradient>
<linearGradient id="grad" x1="0" y1="0" x2="1" y2="0"><stop offset="0" stop-color="#34f5b0"/><stop offset="0.55" stop-color="#bfe9ff"/><stop offset="1" stop-color="#ffcf5c"/></linearGradient>
<radialGradient id="mv-halo" cx="50%" cy="42%" r="55%"><stop offset="0" stop-color="rgba(52,245,176,0.20)"/><stop offset="1" stop-color="rgba(52,245,176,0)"/></radialGradient></defs><rect width="2560" height="1440" fill="#060a12"/><rect width="2560" height="1440" fill="url(#grid)"/><rect width="2560" height="1440" fill="url(#glowG)"/><rect width="2560" height="1440" fill="url(#glowD)"/><text x="1280" y="210" font-family="monospace" font-weight="400" font-size="26" fill="#34f5b0" text-anchor="middle" letter-spacing="6">THE TOOLKIT</text><text x="1280" y="300" font-family="sans-serif" font-weight="800" font-size="78" fill="#ffffff" text-anchor="middle">Three modules. One clear call.</text><text x="1280" y="366" font-family="sans-serif" font-weight="400" font-size="30" fill="#93a1c4" text-anchor="middle">Each module is a collectible panel in your market command center — built to answer one question well.</text><rect x="140" y="470" width="720" height="720" rx="22" fill="#0c1322" stroke="#2a3a5c"/><rect x="140" y="470" width="720" height="6" rx="3" fill="#34f5b0"/><rect x="600" y="504" width="230" height="42" rx="8" fill="#34f5b01a" stroke="#34f5b066"/><text x="715" y="532" font-family="monospace" font-weight="400" font-size="20" fill="#34f5b0" text-anchor="middle" letter-spacing="2">MAPS THE TERRAIN</text><rect x="180" y="570" width="640" height="220" rx="12" fill="#070b14" stroke="#34f5b033"/><rect x="180" y="600" width="640" height="22" fill="#34f5b014"/><line x1="180" y1="611" x2="820" y2="611" stroke="#34f5b0" stroke-dasharray="6 6" opacity="0.6"/><rect x="180" y="738" width="640" height="22" fill="#34f5b014"/><line x1="180" y1="749" x2="820" y2="749" stroke="#34f5b0" stroke-dasharray="6 6" opacity="0.6"/><rect x="209" y="702.6" width="10" height="23.799999999999997" rx="2" fill="#34f5b0" opacity="0.8"/><rect x="267" y="709.2" width="10" height="19.599999999999998" rx="2" fill="#34f5b0" opacity="0.8"/><rect x="325" y="693.8" width="10" height="29.4" rx="2" fill="#34f5b0" opacity="0.8"/><rect x="383" y="685" width="10" height="35" rx="2" fill="#34f5b0" opacity="0.8"/><rect x="441" y="691.6" width="10" height="30.799999999999997" rx="2" fill="#34f5b0" opacity="0.8"/><rect x="499" y="678.4" width="10" height="39.199999999999996" rx="2" fill="#34f5b0" opacity="0.8"/><rect x="557" y="671.8" width="10" height="43.4" rx="2" fill="#34f5b0" opacity="0.8"/><rect x="615" y="663" width="10" height="49" rx="2" fill="#34f5b0" opacity="0.8"/><rect x="673" y="667.4" width="10" height="46.199999999999996" rx="2" fill="#34f5b0" opacity="0.8"/><rect x="731" y="656.4" width="10" height="53.199999999999996" rx="2" fill="#34f5b0" opacity="0.8"/><rect x="180" y="816" width="179" height="44" rx="10" fill="#34f5b01a" stroke="#34f5b055"/><text x="202" y="845" font-family="monospace" font-weight="400" font-size="22" fill="#34f5b0" text-anchor="start" letter-spacing="2">THE RANGE</text><text x="180" y="922" font-family="sans-serif" font-weight="800" font-size="44" fill="#ffffff" text-anchor="start">Range Map Overlay</text><text x="180" y="972" font-family="sans-serif" font-weight="400" font-size="26" fill="#34f5b0" text-anchor="start">Reads the battlefield before you click buy.</text><text x="286.6666666666667" y="1070" font-family="sans-serif" font-weight="800" font-size="40" fill="#34f5b0" text-anchor="middle">0–100</text><text x="286.6666666666667" y="1110" font-family="monospace" font-weight="400" font-size="20" fill="#93a1c4" text-anchor="middle">Range Score</text><text x="500.00000000000006" y="1070" font-family="sans-serif" font-weight="800" font-size="40" fill="#34f5b0" text-anchor="middle">3</text><text x="500.00000000000006" y="1110" font-family="monospace" font-weight="400" font-size="20" fill="#93a1c4" text-anchor="middle">Key Zones</text><text x="713.3333333333334" y="1070" font-family="sans-serif" font-weight="800" font-size="40" fill="#34f5b0" text-anchor="middle">1</text><text x="713.3333333333334" y="1110" font-family="monospace" font-weight="400" font-size="20" fill="#93a1c4" text-anchor="middle">Decision Map</text><rect x="920" y="470" width="720" height="720" rx="22" fill="#0c1322" stroke="#2a3a5c"/><rect x="920" y="470" width="720" height="6" rx="3" fill="#38e1ff"/><rect x="1380" y="504" width="230" height="42" rx="8" fill="#38e1ff1a" stroke="#38e1ff66"/><text x="1495" y="532" font-family="monospace" font-weight="400" font-size="20" fill="#38e1ff" text-anchor="middle" letter-spacing="2">HYPE DETECTOR</text><rect x="960" y="570" width="640" height="220" rx="12" fill="#070b14" stroke="#38e1ff33"/><polyline points="980,750 1120,720 1280,735 1440,695 1580,600" fill="none" stroke="#38e1ff" stroke-width="3" opacity="0.9"/><rect x="984" y="741.8" width="13" height="18.2" rx="2" fill="#38e1ff" opacity="0.25"/><rect x="1043.2" y="732" width="13" height="28" rx="2" fill="#38e1ff" opacity="0.31"/><rect x="1102.4" y="720.8" width="13" height="39.199999999999996" rx="2" fill="#38e1ff" opacity="0.37"/><rect x="1161.6" y="709.6" width="13" height="50.4" rx="2" fill="#38e1ff" opacity="0.43"/><rect x="1220.8" y="715.2" width="13" height="44.8" rx="2" fill="#38e1ff" opacity="0.49"/><rect x="1280" y="701.2" width="13" height="58.8" rx="2" fill="#38e1ff" opacity="0.55"/><rect x="1339.2" y="711" width="13" height="49" rx="2" fill="#38e1ff" opacity="0.61"/><rect x="1398.4" y="723.6" width="13" height="36.4" rx="2" fill="#38e1ff" opacity="0.6699999999999999"/><rect x="1457.6" y="734.8" width="13" height="25.2" rx="2" fill="#38e1ff" opacity="0.73"/><rect x="1516.8000000000002" y="704" width="13" height="56" rx="2" fill="#38e1ff" opacity="0.79"/><rect x="960" y="816" width="224" height="44" rx="10" fill="#38e1ff1a" stroke="#38e1ff55"/><text x="982" y="845" font-family="monospace" font-weight="400" font-size="22" fill="#38e1ff" text-anchor="start" letter-spacing="2">THE MOMENTUM</text><text x="960" y="922" font-family="sans-serif" font-weight="800" font-size="44" fill="#ffffff" text-anchor="start">Momentum Engine</text><text x="960" y="972" font-family="sans-serif" font-weight="400" font-size="26" fill="#38e1ff" text-anchor="start">Tells you when the move has juice.</text><text x="1066.6666666666667" y="1070" font-family="sans-serif" font-weight="800" font-size="40" fill="#38e1ff" text-anchor="middle">10</text><text x="1066.6666666666667" y="1110" font-family="monospace" font-weight="400" font-size="20" fill="#93a1c4" text-anchor="middle">Stages</text><text x="1280" y="1070" font-family="sans-serif" font-weight="800" font-size="40" fill="#38e1ff" text-anchor="middle">5</text><text x="1280" y="1110" font-family="monospace" font-weight="400" font-size="20" fill="#93a1c4" text-anchor="middle">Inputs</text><text x="1493.3333333333335" y="1070" font-family="sans-serif" font-weight="800" font-size="40" fill="#38e1ff" text-anchor="middle">LIVE</text><text x="1493.3333333333335" y="1110" font-family="monospace" font-weight="400" font-size="20" fill="#93a1c4" text-anchor="middle">Trend State</text><rect x="1700" y="470" width="720" height="720" rx="22" fill="#0c1322" stroke="#2a3a5c"/><rect x="1700" y="470" width="720" height="6" rx="3" fill="#b07bff"/><rect x="2160" y="504" width="230" height="42" rx="8" fill="#b07bff1a" stroke="#b07bff66"/><text x="2275" y="532" font-family="monospace" font-weight="400" font-size="20" fill="#b07bff" text-anchor="middle" letter-spacing="2">ANTI-FOMO</text><rect x="1740" y="570" width="640" height="220" rx="12" fill="#070b14" stroke="#b07bff33"/><circle cx="1944.8" cy="691" r="26" fill="none" stroke="#b07bff" stroke-width="1" opacity="0.25"/><circle cx="1944.8" cy="691" r="48" fill="none" stroke="#b07bff" stroke-width="1" opacity="0.25"/><circle cx="1944.8" cy="691" r="70" fill="none" stroke="#b07bff" stroke-width="1" opacity="0.25"/><circle cx="1944.8" cy="691" r="92" fill="none" stroke="#b07bff" stroke-width="1" opacity="0.25"/><path d="M1944.8 691 L2036.8 691 A92 92 0 0 0 2009.8 626 Z" fill="#b07bff40"/><line x1="1944.8" y1="691" x2="2036.8" y2="691" stroke="#b07bff" stroke-width="2"/><rect x="2124" y="600" width="80" height="13" rx="3" fill="#b07bff" opacity="0.9"/><rect x="2124" y="626" width="52" height="13" rx="3" fill="#b07bff" opacity="0.7"/><rect x="2124" y="652" width="92" height="13" rx="3" fill="#b07bff" opacity="0.8"/><rect x="2124" y="678" width="40" height="13" rx="3" fill="#b07bff" opacity="0.6"/><rect x="1740" y="816" width="164" height="44" rx="10" fill="#b07bff1a" stroke="#b07bff55"/><text x="1762" y="845" font-family="monospace" font-weight="400" font-size="22" fill="#b07bff" text-anchor="start" letter-spacing="2">THE RISK</text><text x="1740" y="922" font-family="sans-serif" font-weight="800" font-size="44" fill="#ffffff" text-anchor="start">Risk Radar</text><text x="1740" y="972" font-family="sans-serif" font-weight="400" font-size="26" fill="#b07bff" text-anchor="start">Quietly says: this entry is too hot.</text><text x="1846.6666666666667" y="1070" font-family="sans-serif" font-weight="800" font-size="40" fill="#b07bff" text-anchor="middle">R / R</text><text x="1846.6666666666667" y="1110" font-family="monospace" font-weight="400" font-size="20" fill="#93a1c4" text-anchor="middle">Risk / Reward</text><text x="2060" y="1070" font-family="sans-serif" font-weight="800" font-size="40" fill="#b07bff" text-anchor="middle">A–F</text><text x="2060" y="1110" font-family="monospace" font-weight="400" font-size="20" fill="#93a1c4" text-anchor="middle">Entry Grade</text><text x="2273.333333333333" y="1070" font-family="sans-serif" font-weight="800" font-size="40" fill="#b07bff" text-anchor="middle">3</text><text x="2273.333333333333" y="1110" font-family="monospace" font-weight="400" font-size="20" fill="#93a1c4" text-anchor="middle">Alert Zones</text></svg>